<svg width="12" height="8" viewBox="0 0 12 8" fill="none" xmlns="http://www.w3.org/2000/svg">
<path fill-rule="evenodd" clip-rule="evenodd" d="M6.27319 0.693059C4.14054 0.693059 2.10657 2.16477 0.926482 3.34335C0.636654 3.63281 0.616458 4.06771 0.868608 4.36063C1.85093 5.5018 3.72483 6.93059 6.27319 6.93059C8.92765 6.93059 10.5176 5.379 11.21 4.24335C11.356 4.00382 11.3365 3.69467 11.1542 3.45577C10.254 2.27548 8.48052 0.693059 6.27319 0.693059ZM0.436727 2.85297C1.65246 1.63879 3.85665 0 6.27319 0C8.80449 0 10.7572 1.79249 11.7053 3.03544C12.0485 3.48539 12.1067 4.1039 11.8017 4.60411C11.0213 5.88424 9.23395 7.62365 6.27319 7.62365C3.45516 7.62365 1.40545 6.04663 0.343349 4.81277C-0.160471 4.22748 -0.093341 3.38237 0.436727 2.85297Z" fill="#70677F"/>
<path d="M8.35208 3.81209C8.35208 4.96039 7.4212 5.89127 6.2729 5.89127C5.12461 5.89127 4.19373 4.96039 4.19373 3.81209C4.19373 2.66379 5.12461 1.73291 6.2729 1.73291C7.4212 1.73291 8.35208 2.66379 8.35208 3.81209Z" fill="#70677F"/>
</svg>
