<svg width="12" height="12" viewBox="0 0 12 12" fill="none" xmlns="http://www.w3.org/2000/svg">
<path d="M1.02134 11.9779C0.410307 11.9779 -0.09524 11.4785 0.0152543 10.8776C0.236782 9.67273 0.818879 8.5535 1.69723 7.67514C2.8384 6.53398 4.38615 5.89288 6 5.89288C7.61385 5.89288 9.1616 6.53398 10.3028 7.67514C11.1811 8.55349 11.7632 9.67272 11.9847 10.8776C12.0952 11.4785 11.5897 11.9779 10.9787 11.9779L1.02134 11.9779Z" fill="#70677F"/>
<path d="M9.01043 3.07454C9.01043 4.77257 7.63391 6.14909 5.93589 6.14909C4.23787 6.14909 2.86135 4.77257 2.86135 3.07454C2.86135 1.37652 4.23787 0 5.93589 0C7.63391 0 9.01043 1.37652 9.01043 3.07454Z" fill="#70677F"/>
</svg>
